<?xml version="1.0" standalone="no"?>
<!DOCTYPE svg PUBLIC "-//W3C//DTD SVG 20010904//EN"
 "http://www.w3.org/TR/2001/REC-SVG-20010904/DTD/svg10.dtd">
<svg version="1.0" xmlns="http://www.w3.org/2000/svg"
 width="770.000000pt" height="567.000000pt" viewBox="0 0 770.000000 567.000000"
 preserveAspectRatio="xMidYMid meet">
<metadata>
Created by potrace 1.16, written by Peter Selinger 2001-2019
</metadata>
<g transform="translate(0.000000,567.000000) scale(0.100000,-0.100000)"
fill="#000000" stroke="none">
<path d="M1757 5663 c-13 -12 -7 -59 23 -168 16 -60 35 -130 41 -155 l12 -45
13 40 c22 67 26 75 34 75 4 0 5 11 2 25 -2 14 -8 25 -13 25 -5 0 -9 20 -9 45
0 33 4 45 15 45 8 0 15 -6 15 -14 0 -8 8 -17 18 -19 15 -4 15 -5 0 -6 -18 -1
-33 -34 -23 -51 4 -7 12 -7 25 0 13 7 21 26 25 64 5 36 13 57 23 61 21 8 47
-19 36 -37 -12 -19 -14 -38 -3 -38 5 0 12 7 15 15 4 8 10 15 16 15 5 0 21 11
36 25 15 14 21 25 14 25 -19 0 -44 28 -39 43 9 27 -28 36 -149 37 -66 0 -124
-3 -127 -7z"/>
<path d="M1333 4735 c-25 -11 -34 -22 -43 -57 -5 -24 -24 -90 -40 -148 -40
-139 -92 -361 -86 -367 3 -3 10 15 17 39 17 58 35 82 60 83 15 0 25 10 33 35
11 35 38 54 90 65 l30 6 -27 18 c-15 10 -33 26 -41 36 -12 17 -10 23 20 54 19
20 34 41 34 47 0 5 19 39 42 75 23 35 50 79 59 97 l17 32 -67 0 c-36 -1 -80
-7 -98 -15z"/>
<path d="M7606 4364 c-7 -17 11 -37 25 -28 14 8 21 -17 15 -52 -7 -36 -25 -44
-46 -19 -7 9 -15 13 -18 10 -3 -3 -14 2 -24 12 -17 15 -18 15 -18 -10 0 -35
20 -77 37 -77 7 0 13 -5 13 -12 0 -6 3 -8 7 -5 3 4 12 2 20 -4 10 -9 10 -15 2
-25 -6 -8 -7 -14 -2 -14 5 0 24 21 42 47 27 38 35 60 39 110 5 62 5 62 -24 68
-16 4 -36 9 -45 11 -9 3 -20 -3 -23 -12z"/>
<path d="M5475 4145 c-79 -15 -160 -42 -225 -75 -57 -29 -190 -163 -215 -215
-27 -58 -55 -173 -55 -226 0 -72 69 -279 93 -279 6 0 7 -3 4 -6 -10 -10 12
-44 29 -44 8 0 13 -4 10 -9 -10 -15 138 -147 214 -189 41 -24 97 -59 125 -80
27 -20 45 -31 41 -23 -10 16 7 8 36 -17 10 -8 24 -12 33 -8 9 3 25 1 35 -4 11
-6 29 -15 40 -20 15 -8 20 -7 20 4 0 13 52 30 96 30 14 0 20 5 17 13 -3 9 0
11 10 7 20 -7 93 39 109 69 7 14 40 46 72 72 85 69 99 87 161 210 72 143 84
203 61 314 -19 98 -41 143 -113 238 -66 87 -120 130 -227 182 -142 70 -228 83
-371 56z m225 -44 c43 -6 87 -15 97 -20 10 -5 40 -20 66 -33 27 -12 60 -33 73
-45 14 -13 28 -23 31 -23 3 0 16 -10 28 -22 12 -13 37 -36 55 -53 18 -16 48
-63 67 -105 19 -41 38 -83 44 -93 21 -38 20 -137 -2 -215 -37 -135 -89 -196
-219 -262 -133 -66 -189 -80 -325 -77 -71 1 -128 7 -136 13 -8 6 -31 14 -51
17 -20 3 -54 13 -75 22 -21 9 -55 24 -75 33 -21 10 -38 20 -38 25 0 4 -9 7
-21 7 -15 0 -19 4 -15 16 5 13 2 15 -13 11 -13 -3 -18 -1 -15 8 3 7 -4 16 -15
20 -12 3 -21 13 -21 21 0 8 -5 14 -11 14 -5 0 -7 4 -4 10 3 5 -5 22 -19 37
-15 15 -26 33 -26 38 0 6 -6 17 -12 23 -7 7 -14 23 -14 35 -1 12 -5 33 -9 47
-4 14 -6 31 -6 38 0 6 1 44 1 82 1 44 6 70 13 70 8 0 8 3 -1 12 -8 8 -8 16 0
32 7 12 13 27 14 35 2 8 12 27 23 42 12 16 21 32 21 37 0 13 101 110 133 127
15 8 39 22 55 30 15 8 37 15 49 15 12 0 23 5 25 11 6 17 108 35 181 32 37 -1
103 -7 147 -12z"/>
<path d="M4270 3693 c-90 -9 -272 -65 -257 -79 3 -3 15 -1 26 6 12 6 21 7 21
3 0 -4 4 -3 8 4 10 15 164 53 217 53 54 0 155 -20 155 -31 0 -5 7 -9 14 -9 40
0 157 -74 227 -142 136 -134 188 -292 159 -487 -13 -87 -44 -158 -108 -251
-61 -89 -98 -126 -162 -164 -104 -61 -157 -78 -257 -83 -51 -2 -93 -1 -93 4 0
4 -29 8 -65 8 -72 0 -85 -9 -27 -19 86 -14 241 -7 305 15 65 22 177 77 188 93
4 5 12 6 18 2 6 -4 9 -1 5 7 -4 11 1 13 20 10 18 -4 28 1 38 19 7 12 13 28 13
35 0 6 23 34 51 61 48 47 102 137 90 150 -3 3 -2 10 4 17 15 18 27 151 19 218
-15 121 -76 260 -150 342 -100 108 -244 197 -344 210 -27 4 -57 8 -65 9 -8 1
-31 1 -50 -1z"/>
<path d="M5640 2324 c-31 -11 -32 -13 -10 -14 70 -2 200 -71 200 -105 0 -8 4
-15 9 -15 10 0 7 -32 -4 -51 -5 -7 -12 -6 -23 3 -13 12 -14 10 -4 -9 16 -28
15 -33 -3 -33 -8 0 -15 -5 -15 -11 0 -5 -4 -8 -9 -4 -5 3 -12 1 -16 -5 -3 -5
-2 -10 3 -10 5 0 9 -7 9 -15 0 -8 -4 -12 -9 -9 -4 3 -12 -6 -17 -19 -6 -14
-15 -28 -21 -32 -5 -3 -8 -11 -4 -16 3 -5 2 -9 -3 -8 -15 2 -53 -13 -53 -22 0
-4 5 -11 10 -14 16 -10 7 -38 -18 -56 l-23 -16 60 -44 c66 -48 78 -70 81 -143
0 -28 3 -53 6 -58 3 -4 7 -27 10 -50 6 -52 11 -58 20 -24 7 31 24 35 24 6 0
-22 16 -27 23 -7 2 6 -6 23 -18 37 -13 14 -30 49 -39 79 -31 107 -16 183 50
248 25 24 50 43 57 44 7 0 22 2 34 3 12 1 20 -1 17 -6 -3 -4 -12 -8 -19 -8 -8
0 -19 -8 -24 -17 -8 -16 -3 -18 42 -18 29 0 55 4 59 10 10 14 19 0 12 -19 -4
-10 -15 -16 -27 -14 -11 2 -22 -2 -24 -8 -3 -8 11 -11 39 -10 37 1 43 -2 46
-22 3 -18 8 -21 28 -16 24 6 28 -1 27 -43 -1 -7 4 -13 9 -13 7 0 7 -4 0 -12
-18 -23 -4 -81 25 -106 21 -16 25 -24 15 -30 -7 -5 -10 -15 -7 -23 3 -8 -3
-31 -14 -52 -10 -20 -15 -40 -10 -43 5 -3 7 -10 4 -15 -3 -5 1 -6 10 -3 9 4
14 13 11 20 -3 8 -1 14 4 14 6 0 10 -4 10 -10 0 -5 7 -10 15 -10 8 0 15 6 15
13 0 9 9 12 28 10 24 -4 29 1 46 39 10 24 18 52 17 63 -1 15 0 17 7 6 7 -10
11 -10 17 -1 4 7 1 16 -6 21 -11 7 -10 9 4 9 9 0 17 5 17 10 0 6 -5 10 -11 10
-7 0 -9 8 -4 23 4 12 7 41 6 65 -1 23 3 42 9 42 5 0 10 5 10 11 0 5 -5 7 -11
4 -7 -5 -9 5 -7 26 2 19 8 33 14 32 7 -1 10 6 7 17 -3 12 0 20 6 20 7 0 10 4
6 9 -3 5 6 31 21 56 14 26 24 47 22 48 -2 1 -18 12 -36 25 -25 17 -41 22 -62
17 -19 -4 -42 -1 -62 9 -17 9 -29 13 -25 10 8 -9 -11 -44 -24 -44 -6 0 -17 -7
-25 -15 -9 -8 -30 -15 -49 -15 -27 0 -39 7 -62 38 -49 63 -63 90 -63 121 0 22
-6 30 -22 35 -13 3 -34 16 -48 28 -14 13 -37 29 -52 35 -16 7 -28 19 -28 28 0
14 -23 21 -60 17 -33 -4 -46 -3 -80 5 -23 6 -47 5 -70 -3z"/>
<path d="M5446 2205 c-11 -17 -27 -36 -35 -42 -14 -11 -14 -14 -1 -22 21 -14
3 -27 -19 -14 -27 17 -36 2 -11 -17 20 -15 21 -17 4 -31 -11 -9 -15 -9 -10 -1
4 7 1 12 -8 12 -25 0 -18 -19 9 -26 14 -3 23 -10 20 -14 -3 -5 -14 -6 -25 -3
-11 3 -20 0 -20 -6 0 -5 6 -8 14 -5 7 3 16 -2 20 -12 4 -11 2 -15 -8 -11 -8 3
-20 -1 -27 -9 -10 -12 -16 -11 -45 11 -31 24 -54 26 -54 6 0 -13 71 -83 78
-76 4 3 2 9 -3 13 -28 20 -9 27 58 21 40 -3 73 -5 75 -4 1 1 -2 14 -8 29 -7
21 -6 34 5 57 11 21 15 52 13 101 l-3 72 -19 -29z"/>
<path d="M4120 2069 c0 -6 -7 -8 -16 -5 -13 5 -14 1 -9 -24 4 -16 3 -35 -2
-42 -7 -12 -9 -22 -16 -88 -2 -25 -31 -93 -50 -118 -15 -19 -15 -63 -1 -58 9
4 10 -4 3 -27 -5 -18 -9 -34 -9 -36 0 -2 -7 -1 -15 3 -23 8 -18 -20 7 -44 46
-43 133 -45 194 -5 14 9 41 42 61 73 31 48 37 67 41 127 4 64 1 75 -30 135
-22 42 -47 73 -73 92 -41 28 -85 37 -85 17z"/>
<path d="M5109 1562 c-17 -20 -33 -53 -31 -64 1 -5 -1 -8 -6 -8 -4 0 -23 -14
-42 -32 -19 -17 -54 -40 -77 -50 -24 -10 -43 -23 -43 -28 0 -6 -8 -10 -17 -10
-15 0 -16 -2 -3 -10 10 -6 -1 -11 -39 -16 l-52 -7 30 -27 c106 -98 304 -38
346 104 18 60 19 89 3 133 -14 38 -44 44 -69 15z"/>
<path d="M6860 1553 c-39 -11 -60 -28 -55 -41 4 -12 2 -12 -8 -3 -18 14 -109
6 -145 -13 -45 -24 -114 -77 -108 -83 3 -4 0 -13 -7 -22 -8 -9 -17 -24 -20
-34 -5 -13 3 -10 31 12 20 16 49 33 65 36 15 4 27 11 27 16 0 11 57 12 64 0 3
-4 -6 -6 -19 -3 -18 3 -25 0 -25 -11 0 -16 5 -16 73 -1 18 4 37 0 52 -10 30
-20 32 -13 5 21 -24 31 -26 53 -3 53 9 0 13 3 10 7 -4 3 2 13 13 20 11 8 18
18 15 23 -3 4 2 10 10 14 9 3 15 0 15 -9 0 -17 16 -20 25 -5 4 7 14 6 28 -2
12 -6 37 -12 55 -14 49 -4 35 19 -21 33 -25 6 -50 13 -54 16 -4 2 -15 2 -23 0z"/>
<path d="M4047 1023 c-4 -3 -2 -12 4 -19 14 -17 -7 -58 -26 -50 -7 2 -19 -2
-25 -9 -7 -8 -16 -12 -21 -9 -14 8 -57 -25 -63 -51 -3 -13 -24 -38 -46 -55
-22 -17 -37 -36 -34 -42 4 -6 0 -14 -7 -19 -21 -13 -35 -11 -21 3 7 7 12 16
12 22 0 5 -8 0 -18 -11 -12 -14 -30 -21 -54 -21 -20 0 -46 -3 -58 -7 -19 -6
-21 -12 -16 -43 7 -45 43 -75 121 -101 103 -35 176 -6 270 107 60 72 80 124
70 181 -9 51 -37 101 -57 101 -11 0 -15 5 -12 15 6 15 -7 21 -19 8z"/>
</g>
</svg>
